<?xml version="1.0" encoding="UTF-8" standalone="no"?>
<!DOCTYPE svg PUBLIC "-//W3C//DTD SVG 1.1//EN"
 "http://www.w3.org/Graphics/SVG/1.1/DTD/svg11.dtd">
<!-- Generated by graphviz version 2.36.0 (20140111.2315)
 -->
<!-- Title: G Pages: 1 -->
<svg width="408pt" height="96pt"
 viewBox="0.00 0.00 408.00 96.00" xmlns="http://www.w3.org/2000/svg" xmlns:xlink="http://www.w3.org/1999/xlink">
<g id="graph0" class="graph" transform="scale(1 1) rotate(0) translate(4 92)">
<title>G</title>
<polygon fill="white" stroke="none" points="-4,4 -4,-92 404,-92 404,4 -4,4"/>
<g id="clust1" class="cluster"><title>cluster_Global</title>
<path fill="none" stroke="gray" d="M238,-8C238,-8 380,-8 380,-8 386,-8 392,-14 392,-20 392,-20 392,-68 392,-68 392,-74 386,-80 380,-80 380,-80 238,-80 238,-80 232,-80 226,-74 226,-68 226,-68 226,-20 226,-20 226,-14 232,-8 238,-8"/>
<text text-anchor="middle" x="309" y="-67.2" font-family="Times,serif" font-size="11.00" fill="gray">Global</text>
</g>
<!-- \\CarlDemoInterfaceController -->
<g id="node1" class="node"><title>\\CarlDemoInterfaceController</title>
<polygon fill="none" stroke="black" points="383.5,-52 234.5,-52 234.5,-16 383.5,-16 383.5,-52"/>
<text text-anchor="middle" x="309" y="-31.2" font-family="Times,serif" font-size="11.00">CarlDemoInterfaceController</text>
</g>
<!-- \\InterfaceController -->
<g id="node2" class="node"><title>\\InterfaceController</title>
<ellipse fill="none" stroke="black" cx="81" cy="-34" rx="80.6858" ry="18"/>
<text text-anchor="middle" x="81" y="-30.3" font-family="Times,serif" font-size="14.00" fill="gray">\InterfaceController</text>
</g>
<!-- \\CarlDemoInterfaceController&#45;&gt;\\InterfaceController -->
<g id="edge1" class="edge"><title>\\CarlDemoInterfaceController&#45;&gt;\\InterfaceController</title>
<path fill="none" stroke="black" d="M234.312,-34C214.386,-34 192.598,-34 171.891,-34"/>
<polygon fill="none" stroke="black" points="171.826,-30.5001 161.826,-34 171.826,-37.5001 171.826,-30.5001"/>
</g>
</g>
</svg>
